<svg xmlns="http://www.w3.org/2000/svg" viewBox="0 0 28.41 28.32"><defs><style>.cls-1{fill:#000;}.cls-2{fill:#fff;}.cls-3{fill:none;stroke:#fff;stroke-linecap:round;stroke-miterlimit:13.33;stroke-width:0.47px;}</style></defs><g id="图层_2" data-name="图层 2"><g id="svg1"><g id="layer-MC0"><path id="path7075" class="cls-1" d="M14.21,0a14.16,14.16,0,1,0,14.2,14.15A14.18,14.18,0,0,0,14.21,0"/><path id="path7077" class="cls-2" d="M15,8.86v4.53h2.27l-3.78,6.05V14.91H11.18Z"/><path id="path7081" class="cls-3" d="M20.81,20.77a9.34,9.34,0,0,0,0-13.22"/><path id="path7085" class="cls-3" d="M7.6,7.55a9.34,9.34,0,0,0,0,13.22"/><path id="path7089" class="cls-3" d="M8.86,8.82a7.56,7.56,0,0,0,0,10.68"/><path id="path7093" class="cls-3" d="M19.55,19.5a7.56,7.56,0,0,0,0-10.68"/><path id="path7095" class="cls-3" d="M10.22,10.18a5.63,5.63,0,0,0,0,8"/><path id="path7097" class="cls-3" d="M18.19,18.14a5.63,5.63,0,0,0,0-8"/></g></g></g></svg>