<?xml version="1.0" encoding="UTF-8"?>
<svg id="_图层_1" data-name="图层 1" xmlns="http://www.w3.org/2000/svg" viewBox="0 0 45.36 45.36">
  <g id="icon-4" transform="rotate(90) translate(0 -45.36)">
    <circle cx="22.68" cy="22.68" r="22.68" style="fill: #000; stroke-width: 0px;"/>
    <g>
      <path d="m35.59,24.25c0-2.01-1.61-3.52-3.74-3.52-2.99,0-5.03,2.24-6.06,6.65-1.04,4.45.52,6.72,2.67,9.23.13.15.31.24.51.26.2.01.39-.05.55-.18.31-.27.35-.75.08-1.06-1.99-2.32-3.23-4.12-2.35-7.91,1.28-5.49,3.78-5.49,4.6-5.49,1.11,0,2.24.69,2.24,2.02,0,.81-.67,1.58-1.37,1.58-.41,0-.75-.34-.75-.75s-.34-.75-.75-.75-.75.34-.75.75c0,1.24,1.01,2.25,2.25,2.25,1.53.01,2.87-1.43,2.87-3.08Z" style="fill: #fff; stroke-width: 0px;"/>
      <path d="m13.38,15.57c-1,.03-1.92.45-2.61,1.18-.69.73-1.05,1.69-1,2.68.03.77.35,1.48.91,2s1.29.8,2.06.77c1.24-.04,2.21-1.07,2.18-2.33-.01-.2-.09-.39-.24-.52-.15-.14-.34-.21-.54-.2-.41.01-.73.35-.73.76v.02c0,.42-.32.76-.73.77-.75.03-1.39-.57-1.41-1.32,0-.62.2-1.17.6-1.6.41-.44.96-.69,1.56-.71,2.21-.07,3.38,1.29,3.47,4.06.01.94-.24,2-.55,3.22-.36,1.42-.79,3.09-.79,4.99,0,2.14.54,4.56,2.32,7.25.11.17.28.28.48.32.2.04.4,0,.56-.11.33-.22.43-.71.21-1.04-3-4.52-2.11-7.98-1.33-11.04.33-1.3.65-2.53.6-3.65-.11-3.6-1.94-5.61-5.02-5.5Z" style="fill: #fff; stroke-width: 0px;"/>
      <path d="m22.19,29.1c0-2.71.97-5.17,1.93-7.59.9-2.29,1.76-4.46,1.76-6.69,0-.58-.06-1.12-.17-1.67-.74-3.57-3.06-5.61-6.37-5.61-2.06,0-3.74,1.68-3.74,3.74,0,1.58,1.29,2.87,2.87,2.87,1.24,0,2.25-1.01,2.25-2.25,0-.41-.34-.75-.75-.75s-.75.34-.75.75-.34.75-.75.75c-.75,0-1.37-.61-1.37-1.37,0-1.23,1-2.24,2.24-2.24,1.82,0,4.14.77,4.9,4.42.5,2.39-.48,4.88-1.52,7.51-1.73,4.4-3.7,9.38.33,15.62.22.35.69.45,1.04.22.35-.23.45-.69.22-1.04-1.55-2.42-2.12-4.61-2.12-6.67Z" style="fill: #fff; stroke-width: 0px;"/>
    </g>
  </g>
</svg>