<?xml version="1.0" encoding="UTF-8"?>
<svg id="_图层_2" data-name="图层 2" xmlns="http://www.w3.org/2000/svg" viewBox="0 0 85.04 85.04">
  <defs>
    <style>
      .cls-1 {
        fill: #000;
      }

      .cls-2 {
        fill: #fff;
      }
    </style>
  </defs>
  <g id="_刀模图层" data-name="刀模图层">
    <g id="_4-lice-sandwich-maker" data-name="4-lice-sandwich-maker">
      <circle class="cls-1" cx="42.52" cy="42.52" r="42.52"/>
      <path class="cls-2" d="m51.06,21.41c-5.26,0-10.27,1.03-14.05,2.92-4.4,2.18-6.78,5.26-6.78,8.67,0,1.68.58,4.03,3.16,6.33l.04,20.87c0,1.89,1.52,3.45,3.45,3.45h28.34c1.89,0,3.45-1.56,3.45-3.45l-.04-20.74c2.71-2.3,3.33-4.72,3.33-6.41,0-3.45-2.42-6.53-6.78-8.71-3.86-1.85-8.83-2.92-14.13-2.92h0Z"/>
      <path class="cls-2" d="m37.72,63.63c-1.92,0-3.49-1.11-3.98-2.59h-1.62c-.54,0-1.03-.41-1.03-.9l-.05-22.06c-2.41-1.44-3.78-3.2-3.78-5.09,0-2.46,2.41-4.72,6.34-6.33,1.18-.86,2.6-1.64,4.28-2.34,3.88-1.6,8.8-2.59,14.06-2.83-.93-.04-1.87-.08-2.8-.08-6.29,0-12.29,1.03-16.81,2.92-5.26,2.18-8.11,5.26-8.11,8.67,0,1.68.69,4.03,3.78,6.33l.05,20.87c0,1.89,1.82,3.45,4.13,3.45h9.53-3.98Z"/>
      <path class="cls-2" d="m32.17,63.63c-1.92,0-3.49-1.11-3.98-2.59h-1.62c-.54,0-1.03-.41-1.03-.9l-.05-22.06c-2.41-1.44-3.78-3.2-3.78-5.09,0-2.46,2.41-4.72,6.34-6.33,1.18-.86,2.6-1.64,4.28-2.34,3.88-1.6,8.8-2.59,14.06-2.83-.93-.04-1.87-.08-2.8-.08-6.29,0-12.29,1.03-16.81,2.92-5.26,2.18-8.11,5.26-8.11,8.67,0,1.68.69,4.03,3.78,6.33l.05,20.87c0,1.89,1.82,3.45,4.13,3.45h9.53-3.98Z"/>
      <path class="cls-2" d="m26.59,63.63c-1.92,0-3.49-1.11-3.98-2.59h-1.62c-.54,0-1.03-.41-1.03-.9l-.05-22.06c-2.41-1.44-3.78-3.2-3.78-5.09,0-2.46,2.41-4.72,6.34-6.33,1.18-.86,2.6-1.64,4.28-2.34,3.88-1.6,8.8-2.59,14.06-2.83-.93-.04-1.87-.08-2.8-.08-6.29,0-12.29,1.03-16.81,2.92-5.26,2.18-8.11,5.26-8.11,8.67,0,1.68.69,4.03,3.78,6.33l.05,20.87c0,1.89,1.82,3.45,4.13,3.45h9.53-3.98Z"/>
    </g>
  </g>
</svg>