<?xml version="1.0" encoding="utf-8"?>
<!-- Generator: Adobe Illustrator 27.2.0, SVG Export Plug-In . SVG Version: 6.00 Build 0)  -->
<svg version="1.1" id="_图层_2" xmlns="http://www.w3.org/2000/svg" xmlns:xlink="http://www.w3.org/1999/xlink" x="0px" y="0px"
	 viewBox="0 0 34 34" style="enable-background:new 0 0 34 34;" xml:space="preserve">
<style type="text/css">
	.st0{fill:#FFFFFF;}
</style>
<g id="_图层_1-2">
	<g id="_5-level-dimming-control">
		<path d="M17,34L17,34C7.6,34,0,26.4,0,17C0,7.6,7.6,0,17,0c9.4,0,17,7.6,17,17S26.4,34,17,34"/>
		<path class="st0" d="M11.6,10.8c-0.1,0.2-0.1,0.5-0.1,0.8s0,0.5,0.1,0.8H9.2c-0.4,0-0.8-0.3-0.8-0.8s0.3-0.8,0.8-0.8H11.6z
			 M15.9,10.8h8.9c0.4,0,0.8,0.3,0.8,0.8s-0.3,0.8-0.8,0.8h-8.9C16,12,16,11.8,16,11.5S16,11,15.9,10.8 M18.1,16.2
			C18.1,16.5,18,16.7,18,17s0,0.5,0.1,0.8H9.3c-0.4,0-0.8-0.3-0.8-0.8s0.3-0.8,0.8-0.8H18.1z M22.4,16.2h2.4c0.4,0,0.8,0.3,0.8,0.8
			s-0.3,0.8-0.8,0.8h-2.4c0.1-0.2,0.1-0.5,0.1-0.8S22.5,16.5,22.4,16.2 M12.6,21.8c-0.1,0.2-0.1,0.5-0.1,0.8s0.1,0.5,0.1,0.8H9.2
			c-0.4,0-0.8-0.3-0.8-0.8s0.3-0.8,0.8-0.8H12.6z M16.9,21.8h7.9c0.4,0,0.8,0.3,0.8,0.8s-0.3,0.8-0.8,0.8h-7.9
			C17,23,17,22.8,17,22.5S17,22,16.9,21.8 M13.8,12.8c-0.7,0-1.2-0.6-1.2-1.2s0.6-1.2,1.2-1.2s1.2,0.6,1.2,1.2S14.4,12.8,13.8,12.8
			 M20.3,18.2c-0.7,0-1.2-0.6-1.2-1.2s0.6-1.2,1.2-1.2s1.2,0.6,1.2,1.2S20.9,18.2,20.3,18.2 M14.8,23.8c-0.7,0-1.2-0.6-1.2-1.2
			c0-0.7,0.6-1.2,1.2-1.2s1.2,0.6,1.2,1.2C16,23.2,15.4,23.8,14.8,23.8"/>
	</g>
</g>
</svg>
