<?xml version="1.0" encoding="UTF-8"?>
<svg id="_图层_1" data-name="图层 1" xmlns="http://www.w3.org/2000/svg" viewBox="0 0 18.43 18.42">
  <g id="icon-2">
    <path d="m9.22,0C4.12,0,0,4.12,0,9.2s4.13,9.22,9.22,9.22,9.21-4.13,9.21-9.22S14.3,0,9.22,0Z" style="fill: #000; stroke-width: 0px;"/>
    <g>
      <path d="m6.55,15.09c.92-1.66.92-3.2,0-4.86h-2.41s-.54.33-.66.81h2.72c.01-.19.06-.37.14-.52.78,1.48.78,2.8,0,4.28-.07-.15-.13-.33-.14-.52h-2.72c.12.49.66.81.66.81.98,0,1.44,0,2.41,0h0c.01,0,0,0,0,0Z" style="fill: #fff; stroke-width: 0px;"/>
      <path d="m6.06,14.07c.05,0,.1-.02.14-.04.08-.05.13-.13.13-.22v-2.3c0-.09-.05-.18-.13-.22-.04-.03-.09-.04-.14-.04h-2.46c-.05,0-.1.02-.14.04-.08.05-.13.13-.13.22v2.3c0,.09.05.18.13.22.04.03.09.04.14.04h2.46Zm-2.43-2.53h2.39v2.24h-2.39v-2.24Z" style="fill: #fff; stroke-width: 0px;"/>
      <path d="m14.54,6.54c-1.47-.14-2.59-.14-4.05,0-.32.04-.57.34-.57.68v7.11c0,.34.25.64.56.68.74.07,1.22.1,1.92.1s1.4-.03,2.13-.1c.32-.04.57-.34.57-.68v-7.11c0-.34-.24-.64-.56-.68Zm-2.23.4h.41c.11,0,.2.09.2.2s-.09.2-.2.2h-.41c-.11,0-.2-.09-.2-.2,0-.1.09-.2.2-.2Zm.79,7.57h-1.16c-.13,0-.24-.11-.24-.24s.11-.24.24-.24h1.16c.13,0,.24.11.24.24s-.11.24-.24.24Zm1.51-1.09h-4.18v-5.66h4.18v5.66Z" style="fill: #fff; stroke-width: 0px;"/>
      <path d="m9.59,14.33v-.46h-2.11c-.11.39-.28.79-.5,1.19l-.03.05h3.08c-.27-.16-.44-.45-.44-.78Z" style="fill: #fff; stroke-width: 0px;"/>
      <path d="m5.42,4.54h7.83v1.55c.23.01.47.02.72.04v-2.15c0-.37-.3-.68-.68-.68h-7.91c-.37,0-.68.3-.68.68v5.81h.72v-5.25Zm.27-.87c.14,0,.25.11.25.25s-.11.25-.25.25-.25-.11-.25-.25c.01-.14.12-.25.25-.25Z" style="fill: #fff; stroke-width: 0px;"/>
      <path d="m11.93,14.28h1.16c.01,0,.01-.01.01-.01l-1.18-.01v.02h.01Z" style="fill: #fff; stroke-width: 0px;"/>
      <path d="m5.2,13.18c-.03,0-.07-.01-.09-.04l-.42-.42v-.71c0-.07.06-.13.13-.13s.13.06.13.13v.6l.34.34c.05.05.05.13,0,.18-.02.04-.05.05-.09.05Z" style="fill: #fff; stroke-width: 0px;"/>
    </g>
  </g>
</svg>