<?xml version="1.0" encoding="UTF-8"?>
<svg id="_图层_2" data-name="图层 2" xmlns="http://www.w3.org/2000/svg" viewBox="0 0 53.12 53.48">
  <defs>
    <style>
      .cls-1 {
        fill: #000;
      }

      .cls-2 {
        font-size: 5.27px;
      }

      .cls-2, .cls-3, .cls-4 {
        fill: #fff;
      }

      .cls-3 {
        font-size: 10.75px;
        font-weight: 800;
      }

      .cls-5 {
        fill: none;
      }
    </style>
  </defs>
  <g id="_图层_2-2" data-name="图层 2">
    <g id="efficient-cooking">
      <g>
        <path class="cls-1" d="m53.12,26.74c0,14.77-11.89,26.74-26.56,26.74C11.89,53.48,0,41.51,0,26.74,0,11.97,11.89,0,26.56,0c14.67,0,26.56,11.97,26.56,26.74Z"/>
        <path class="cls-5" d="m26.56,45.1h0c-10.07,0-18.23-8.22-18.23-18.35h0c0-10.14,8.16-18.36,18.23-18.36h0c10.07,0,18.23,8.22,18.23,18.35h0c0,10.14-8.16,18.36-18.23,18.36Z"/>
        <text class="cls-3" transform="translate(12.65 30.43)"><tspan x="0" y="0">1500</tspan></text>
        <text class="cls-2" transform="translate(38.64 29.72)"><tspan x="0" y="0">W</tspan></text>
      </g>
      <g>
        <path class="cls-4" d="m22.82,10.72c8.76-2,17.27,3.35,19.53,11.72.17.65-.18,1.32-.81,1.53h0c-.69.23-1.42-.17-1.61-.87-1.97-7.33-9.6-11.92-17.27-9.74-6.17,1.75-10.4,7.68-10.04,14.08.47,8.43,8.1,14.35,16.19,13,3.7-.62,6.81-2.66,8.88-5.46l1.85,1.73c-2.44,3.19-6.04,5.5-10.31,6.22-9.24,1.55-17.98-4.95-19.04-14.39-.93-8.21,4.59-15.99,12.65-17.83Z"/>
        <path class="cls-4" d="m36.01,33.5c-.59.21-.73.98-.26,1.38l2.13,1.82,2.13,1.82c.48.41,1.21.14,1.33-.47l.51-2.75.51-2.75c.11-.61-.48-1.12-1.07-.91l-2.64.94-2.64.94Z"/>
      </g>
    </g>
  </g>
</svg>