<svg xmlns="http://www.w3.org/2000/svg" viewBox="0 0 27.98 28.15"><defs><style>.cls-1{fill:#000;}.cls-2{fill:#fff;}.cls-3{fill:none;stroke:#fff;stroke-linecap:round;stroke-linejoin:round;stroke-width:0.57px;}</style></defs><g id="图层_2" data-name="图层 2"><g id="图层_1-2" data-name="图层 1"><g id="face-tracking-with-fill-lights"><path class="cls-1" d="M14,0A14.08,14.08,0,1,0,28,14.06,14,14,0,0,0,14,0Z"/><circle class="cls-2" cx="13.99" cy="12.1" r="4.28"/><path class="cls-2" d="M8,19.27a6.54,6.54,0,0,1,2.49-2.57,7.08,7.08,0,0,1,7.05,0A6.47,6.47,0,0,1,20,19.27a.28.28,0,0,1-.11.38.3.3,0,0,1-.35-.06,7.28,7.28,0,0,0-11.1,0,.28.28,0,0,1-.4,0A.29.29,0,0,1,8,19.27Z"/><polyline class="cls-3" points="21.6 19.69 21.6 21.69 19.6 21.69"/><polyline class="cls-3" points="8.37 21.69 6.38 21.69 6.38 19.69"/><polyline class="cls-3" points="6.38 8.46 6.38 6.47 8.37 6.47"/><polyline class="cls-3" points="19.6 6.47 21.6 6.47 21.6 8.46"/></g></g></g></svg>