<svg xmlns="http://www.w3.org/2000/svg" viewBox="0 0 665 215"><defs><style>.cls-1{fill:#fff;}.cls-2{fill:#82e600;}.cls-3{fill:none;stroke:#000;stroke-miterlimit:10;stroke-width:1.06px;}</style></defs><g id="图层_2" data-name="图层 2"><g id="图层_1-2" data-name="图层 1"><rect class="cls-1" width="665" height="215" rx="6"/><path class="cls-2" d="M275,117.07l-2.78,9.12H289l-2.8,9.19H269.39l-5.57,18.25h-9.19l13.94-45.69h29.09l-2.78,9.13Z"/><path class="cls-2" d="M325.84,153.63h-11l-8.36-23.42-7.14,23.42h-9.19l13.94-45.69h20.41a11.78,11.78,0,0,1,5.3,1.15,9.43,9.43,0,0,1,3.64,3.13,10.47,10.47,0,0,1,1.68,4.62,13.36,13.36,0,0,1-.57,5.65,18.11,18.11,0,0,1-2.23,4.69,22.71,22.71,0,0,1-3.46,4.12,23,23,0,0,1-4.32,3.19,19.34,19.34,0,0,1-4.91,2Zm-7.37-25.84a6.84,6.84,0,0,0,4.23-1.53,7.43,7.43,0,0,0,2.68-3.77,5.1,5.1,0,0,0,.23-2.1,4,4,0,0,0-.6-1.7,3.26,3.26,0,0,0-1.34-1.14,4.43,4.43,0,0,0-1.95-.42H310.49l-3.25,10.66Z"/><path class="cls-2" d="M352.24,117.07l-2.79,9.12h16.72l-2.8,9.19H346.65l-2.78,9.12h19.78l-2.79,9.13h-29l13.93-45.69h29L372,117.07Z"/><path class="cls-2" d="M388.22,117.07l-2.78,9.12h16.71l-2.8,9.19H382.64l-2.79,9.12h19.78l-2.78,9.13h-29l13.94-45.69h29L408,117.07Z"/><line class="cls-3" x1="437.59" y1="96.73" x2="197.15" y2="96.73"/><line class="cls-3" x1="245.09" y1="107.94" x2="149.2" y2="107.94"/><line class="cls-3" x1="510.87" y1="154.69" x2="408.89" y2="154.69"/><line class="cls-3" x1="234.75" y1="141.08" x2="166.34" y2="141.08"/><line class="cls-3" x1="516.21" y1="122.46" x2="441.71" y2="122.46"/><line class="cls-3" x1="459.88" y1="164.81" x2="215.52" y2="164.81"/></g></g></svg>