<?xml version="1.0" encoding="UTF-8"?>
<svg id="_图层_2" data-name="图层 2" xmlns="http://www.w3.org/2000/svg" viewBox="0 0 505 275">
  <defs>
    <style>
      .cls-1 {
        letter-spacing: .06em;
      }

      .cls-2 {
        letter-spacing: .06em;
      }

      .cls-3 {
        stroke: #fff;
        stroke-width: 5.44px;
      }

      .cls-3, .cls-4 {
        stroke-miterlimit: 10;
      }

      .cls-3, .cls-5 {
        fill: #82e600;
      }

      .cls-4 {
        fill: none;
        stroke: #000;
        stroke-width: 2.04px;
      }

      .cls-6 {
        fill: #fff;
        stroke-width: 0px;
      }

      .cls-5 {
        font-family: AvenirLTStd-Black, 'Avenir LT Std';
        font-size: 29.9px;
        font-weight: 800;
      }
    </style>
  </defs>
  <g id="_图层_1-2" data-name="图层 1">
    <g>
      <rect class="cls-6" width="505" height="275" rx="15" ry="15" transform="translate(505 275) rotate(180)"/>
      <g>
        <text class="cls-5" transform="translate(175 156.54)"><tspan class="cls-1"><tspan x="0" y="0">AUTHENTICITY</tspan></tspan><tspan class="cls-2"><tspan x="0" y="33.42">&amp; BEST PRICE</tspan></tspan></text>
        <path class="cls-4" d="M112.39,134.83h29.16c3.61,0,6.9,1.48,9.27,3.85,2.38,2.38,3.86,5.66,3.86,9.27v29.16c0,3.61-1.48,6.9-3.86,9.27-2.38,2.38-5.66,3.85-9.27,3.85h-29.16c-3.61,0-6.9-1.48-9.27-3.85-2.38-2.38-3.86-5.66-3.86-9.27v-29.16c0-3.61,1.48-6.9,3.86-9.27,2.38-2.38,5.66-3.85,9.27-3.85h0Z"/>
        <path class="cls-3" d="M113.44,147.49c1-.01,2,.17,2.94.54.91.36,1.76.9,2.51,1.63l14.06,13.62,23.28-36.78.08-.12c.55-.88,1.25-1.61,2.04-2.18.82-.59,1.75-1,2.73-1.22.97-.22,1.99-.26,2.98-.09.96.16,1.91.51,2.79,1.06.88.55,1.61,1.25,2.17,2.04.59.83,1,1.75,1.23,2.73.22.97.26,1.99.09,2.98-.16.96-.51,1.91-1.06,2.79l-.02.03h0s-27.98,44.27-27.98,44.27c-.08.17-.18.34-.27.5h0c-.1.17-.21.34-.32.49-.11.16-.24.32-.36.48-.12.15-.26.3-.4.45-.72.75-1.56,1.31-2.46,1.7-.93.4-1.93.61-2.93.63-1,.01-2.01-.16-2.95-.54-.91-.36-1.77-.9-2.51-1.63l-.13-.12-.13-.12v-.02s-20.6-19.96-20.6-19.96c-.74-.72-1.31-1.56-1.7-2.46-.4-.93-.61-1.93-.62-2.93-.01-1,.17-2,.54-2.94.36-.91.9-1.76,1.63-2.51.72-.74,1.56-1.31,2.46-1.7.93-.4,1.93-.61,2.93-.62h0Z"/>
      </g>
    </g>
  </g>
</svg>