<?xml version="1.0" encoding="utf-8"?>
<!-- Generator: Adobe Illustrator 27.2.0, SVG Export Plug-In . SVG Version: 6.00 Build 0)  -->
<svg version="1.1" id="_图层_2" xmlns="http://www.w3.org/2000/svg" xmlns:xlink="http://www.w3.org/1999/xlink" x="0px" y="0px"
	 viewBox="0 0 34 34" style="enable-background:new 0 0 34 34;" xml:space="preserve">
<style type="text/css">
	.st0{fill:#D71618;}
	.st1{fill:#DD6010;}
	.st2{fill:#E89213;}
	.st3{fill:#F1C11C;}
	.st4{fill:#F3E92A;}
	.st5{fill:#8BB928;}
	.st6{fill:#129243;}
	.st7{fill:#10968F;}
	.st8{fill:#0C63A9;}
	.st9{fill:#1D2976;}
	.st10{fill:#5B1E7E;}
	.st11{fill:#86167A;}
</style>
<g id="_图层_1-2">
	<g id="rgb-colorful-mode">
		<path d="M17,34L17,34C7.6,34,0,26.4,0,17C0,7.6,7.6,0,17,0c9.4,0,17,7.6,17,17S26.4,34,17,34"/>
		<path class="st0" d="M17,7.1c1.9,0,3.6,0.5,5.1,1.4L22,8.4l-2.5,4.3C18.7,12.2,17.9,12,17,12L17,7.1L17,7.1z"/>
		<g>
			<path class="st1" d="M22,8.4c1.5,0.9,2.8,2.2,3.7,3.8L25.6,12l-4.3,2.5c-0.4-0.8-1.1-1.4-1.8-1.8L22,8.4L22,8.4z"/>
			<path class="st2" d="M25.6,12c0.9,1.5,1.4,3.3,1.3,5.1V17h-5c0-0.9-0.2-1.7-0.7-2.5C21.3,14.5,25.6,12,25.6,12z"/>
		</g>
		<g>
			<path class="st3" d="M26.9,17c0,1.7-0.5,3.4-1.2,4.8l-0.1,0.1l-4.3-2.5c0.4-0.7,0.7-1.6,0.7-2.5l0,0C21.9,17,26.9,17,26.9,17z"/>
			<path class="st4" d="M21.3,19.5l4.3,2.5c-0.8,1.5-2,2.7-3.5,3.5l-0.1,0.1l-2.5-4.3C20.2,20.9,20.8,20.2,21.3,19.5"/>
			<path class="st5" d="M19.5,21.3l2.5,4.3c-1.5,0.8-3.1,1.3-4.8,1.3H17v-5C17.9,22,18.7,21.7,19.5,21.3"/>
			<path class="st6" d="M17,22v5c-1.7,0-3.4-0.5-4.8-1.2L12,25.6l2.5-4.3C15.2,21.7,16.1,21.9,17,22L17,22L17,22z"/>
		</g>
		<g>
			<path class="st7" d="M14.5,21.3L12,25.6c-1.5-0.8-2.7-2-3.5-3.5L8.4,22l4.3-2.5C13.1,20.2,13.8,20.9,14.5,21.3"/>
			<path class="st8" d="M12,17c0,0.9,0.2,1.8,0.7,2.5l-4.3,2.5c-0.8-1.5-1.3-3.1-1.3-4.8V17C7.1,17,12,17,12,17z"/>
			<path class="st9" d="M8.4,12l4.3,2.5C12.2,15.3,12,16.1,12,17h-5c0-1.7,0.4-3.4,1.2-4.8L8.4,12z"/>
			<path class="st10" d="M12.2,8.3L12,8.4l2.5,4.3c-0.8,0.4-1.4,1.1-1.8,1.8L8.4,12C9.3,10.5,10.6,9.2,12.2,8.3L12.2,8.3L12.2,8.3z"
				/>
			<path class="st11" d="M17.1,7.1H17v5c-0.9,0-1.7,0.2-2.5,0.7L12,8.4C13.6,7.5,15.4,7,17.1,7.1"/>
		</g>
	</g>
</g>
</svg>
