<svg xmlns:xlink="http://www.w3.org/1999/xlink" xmlns="http://www.w3.org/2000/svg" id="_图层_2" data-name="图层 2" viewBox="0 0 62.78 62.78" width="62.78"  height="62.78" >
  <defs>
    <style>
      .cls-1 {
        stroke-linecap: round;
        stroke-width: 1.01px;
      }

      .cls-1, .cls-2, .cls-3 {
        fill: none;
        stroke: #000;
        stroke-miterlimit: 10;
      }

      .cls-2 {
        stroke-width: 2.06px;
      }

      .cls-4 {
        fill: #000;
      }

      .cls-3 {
        stroke-width: .71px;
      }
    </style>
  </defs>
  <g id="_图层_1-2" data-name="图层 1">
    <g>
      <path class="cls-2" d="m61.75,31.4c0,16.78-13.59,30.36-30.37,30.36S1.03,48.17,1.03,31.4,14.63,1.03,31.39,1.03s30.37,13.59,30.37,30.36Z"/>
      <path class="cls-3" d="m20.28,31.38c.16-6.29,5.36-11.28,11.65-11.2,6.29.08,11.35,5.21,11.35,11.5"/>
      <path class="cls-3" d="m43.28,31.69c0,4.15-2.23,7.97-5.84,10.01-3.61,2.04-8.04,1.98-11.59-.15-3.55-2.14-5.68-6.02-5.57-10.16"/>
      <path class="cls-4" d="m30.78,41.01c5.7,0,10.32-4.62,10.32-10.32,0-3.69-1.97-7.1-5.16-8.94-1.63-.94-3.45-1.4-5.27-1.38-1.75.02-3.49.48-5.05,1.38-3.2,1.84-5.16,5.25-5.16,8.94,0,5.7,4.62,10.32,10.33,10.32"/>
      <line class="cls-1" x1="31.78" y1="16.68" x2="31.78" y2="12.76"/>
      <line class="cls-1" x1="24.3" y1="18.64" x2="22.34" y2="15.25"/>
      <line class="cls-1" x1="18.81" y1="24.08" x2="15.41" y2="22.13"/>
      <line class="cls-1" x1="16.77" y1="31.54" x2="12.85" y2="31.54"/>
      <line class="cls-1" x1="18.74" y1="39.02" x2="15.34" y2="40.98"/>
      <line class="cls-1" x1="24.18" y1="44.52" x2="22.22" y2="47.91"/>
      <line class="cls-1" x1="31.64" y1="46.55" x2="31.64" y2="50.47"/>
      <line class="cls-1" x1="39.12" y1="44.59" x2="41.08" y2="47.98"/>
      <line class="cls-1" x1="44.61" y1="39.15" x2="48" y2="41.1"/>
      <line class="cls-1" x1="46.65" y1="31.69" x2="50.57" y2="31.69"/>
      <line class="cls-1" x1="44.68" y1="24.21" x2="48.07" y2="22.25"/>
      <line class="cls-1" x1="39.24" y1="18.71" x2="41.2" y2="15.32"/>
    </g>
  </g>
</svg>