<svg xmlns:xlink="http://www.w3.org/1999/xlink" xmlns="http://www.w3.org/2000/svg" width="170" height="170" viewBox="0 0 170 170" fill="none">
<rect width="170" height="170" fill="#F9F9F9"/>
<path d="M84.9982 72.5847C87.28 72.5847 89.1428 74.4456 89.1428 76.7275C89.1428 79.0093 87.28 80.861 84.9982 80.861C82.7163 80.861 80.8591 79.0186 80.8591 76.7275C80.8591 74.4364 82.7163 72.5847 84.9982 72.5847Z" fill="#EEEEEE"/>
<path d="M58.1108 80.8629C58.6443 80.8629 59.1575 80.933 59.6523 81.0604C60.3668 79.7718 61.3046 78.6253 62.4105 77.669C61.0997 77.0672 59.6468 76.7238 58.1108 76.7238C52.3895 76.7238 47.7612 81.3595 47.7612 87.0733C47.7612 87.0816 47.7626 87.09 47.764 87.0983C47.7654 87.1066 47.7668 87.1149 47.7668 87.1232H47.7612V97.4137H51.8966V87.1232C51.8966 87.1149 51.8957 87.1066 51.8948 87.0983C51.8939 87.0901 51.8929 87.0816 51.8929 87.0733C51.8929 83.645 54.6769 80.8629 58.1108 80.8629Z" fill="#EEEEEE"/>
<path d="M81.9132 81.8764C82.8179 82.4173 83.8683 82.733 84.9963 82.733C86.1169 82.733 87.1655 82.421 88.0665 81.8856L84.9982 97.4155L81.9132 81.8764Z" fill="#EEEEEE"/>
<path fill-rule="evenodd" clip-rule="evenodd" d="M35.3514 76.7275C41.0578 76.7275 45.6862 81.3595 45.6862 87.0715C45.6862 92.7835 41.0578 97.4136 35.3514 97.4136C29.6449 97.4136 25 92.7853 25 87.0733C25 81.3613 29.6302 76.7275 35.3514 76.7275ZM35.3514 80.861C31.9194 80.861 29.1335 83.645 29.1335 87.0715C29.1335 90.4979 31.9194 93.2764 35.3514 93.2764C38.7834 93.2764 41.5526 90.5016 41.5526 87.0715C41.5526 83.6413 38.7742 80.861 35.3514 80.861Z" fill="#EEEEEE"/>
<path fill-rule="evenodd" clip-rule="evenodd" d="M80.8572 87.0715C80.8572 81.3595 76.2289 76.7275 70.5132 76.7275C64.8031 76.7275 60.1766 81.3595 60.1766 87.0715C60.1766 92.7835 64.8031 97.4136 70.5132 97.4136C72.8449 97.4136 74.9939 96.6493 76.7219 95.3441V97.4136H80.8572V87.0715ZM64.3102 87.0715C64.3102 83.645 67.096 80.861 70.5132 80.861C73.9471 80.861 76.7219 83.6413 76.7219 87.0715C76.7219 90.5016 73.9323 93.2764 70.5132 93.2764C67.0942 93.2764 64.3102 90.4979 64.3102 87.0715Z" fill="#EEEEEE"/>
<path fill-rule="evenodd" clip-rule="evenodd" d="M134.66 76.7275C140.364 76.7275 145 81.3595 145 87.0715C145 92.7835 140.364 97.4136 134.66 97.4136C128.955 97.4136 124.312 92.7835 124.312 87.0715C124.312 81.3595 128.946 76.7275 134.66 76.7275ZM134.66 80.861C131.222 80.861 128.449 83.645 128.449 87.0715C128.449 90.4979 131.222 93.2764 134.66 93.2764C138.097 93.2764 140.861 90.5016 140.861 87.0715C140.861 83.6413 138.084 80.861 134.66 80.861Z" fill="#EEEEEE"/>
<path d="M105.686 78.797C103.964 77.4918 101.817 76.7257 99.4905 76.7257C93.7729 76.7257 89.1465 81.3613 89.1465 87.0752V97.4155H93.2763V87.0752C93.2763 83.6469 96.0585 80.8629 99.4923 80.8629C101.074 80.8629 102.526 81.461 103.626 82.4487V97.4137H107.761V82.4469C108.858 81.4573 110.311 80.861 111.895 80.861C115.329 80.861 118.107 83.645 118.107 87.0733V97.4137H122.246V87.0733C122.246 81.3595 117.612 76.7257 111.893 76.7257C109.563 76.7257 107.416 77.4918 105.686 78.797Z" fill="#EEEEEE"/>
</svg>