<svg xmlns:xlink="http://www.w3.org/1999/xlink" xmlns="http://www.w3.org/2000/svg" id="_图层_1" data-name="图层 1" viewBox="0 0 27.13 27.14" width="27.13"  height="27.14" >
  <g id="icon-1">
    <path d="m13.57,0C6.08,0,0,6.07,0,13.55s6.08,13.59,13.57,13.59,13.56-6.09,13.56-13.59S21.06,0,13.57,0Z" style="fill: #000; stroke-width: 0px;"/>
    <path d="m21.05,11.59H7.08c-1.57,0-2.85,1.27-2.85,2.85v1.66c0,1.57,1.27,2.85,2.85,2.85h13.97c1.57,0,2.85-1.27,2.85-2.85v-1.66c0-1.57-1.28-2.85-2.85-2.85Zm-1.02,4.97h-11.94c-.71,0-1.29-.58-1.29-1.29s.58-1.29,1.29-1.29h11.94c.71,0,1.29.58,1.29,1.29s-.57,1.29-1.29,1.29Z" style="fill: #fff; stroke-width: 0px;"/>
    <polygon points="14.22 4.05 16.8 4.05 15.19 6.8 17.33 6.8 12.82 10.6 14.22 6.8 12.85 6.8 14.22 4.05" style="fill: #fff; stroke-width: 0px;"/>
  </g>
</svg>