<svg xmlns:xlink="http://www.w3.org/1999/xlink" xmlns="http://www.w3.org/2000/svg" id="_图层_2" data-name="图层 2" viewBox="0 0 19.57 19.57" width="19.57"  height="19.57" >
  <defs>
    <style>
      .cls-1 {
        fill: #000;
      }

      .cls-2 {
        fill: #fff;
      }

      .cls-3 {
        fill: none;
      }
    </style>
  </defs>
  <g id="_图层_2-2" data-name="图层 2">
    <g>
      <rect class="cls-1" x="0" y="0" width="19.57" height="19.57" rx="9.56" ry="9.56"/>
      <g>
        <rect class="cls-3" x="0" y="0" width="19.57" height="19.57" rx="9.56" ry="9.56"/>
        <rect class="cls-3" x="3.07" y="3.07" width="13.43" height="13.43" rx="6.56" ry="6.56"/>
      </g>
      <g>
        <g>
          <g>
            <ellipse class="cls-2" cx="4.72" cy="12.85" rx=".58" ry="2" transform="translate(-5.51 3.75) rotate(-28.18)"/>
            <path class="cls-2" d="m8.06,11.06c-1-1.87-2.49-3.62-3.3-3.19-.35.19-.43.72-.32,1.42-.1,0-.2,0-.28.04-.3.16-.38.62-.23,1.33.13.63.43,1.4.84,2.16s.88,1.44,1.33,1.9c.39.4.73.6,1.01.6.08,0,.16-.02.23-.06.09-.05.15-.12.2-.21.42.38.78.59,1.08.59.1,0,.19-.02.28-.07.8-.43.17-2.65-.83-4.52Zm-1.7,3.4c-.43-.43-.88-1.08-1.27-1.81-.39-.73-.68-1.47-.81-2.06-.14-.64-.04-.89.04-.93.02,0,.04-.01.06-.01.03,0,.06,0,.09.01.01,0,.03.01.04.02.19.82.59,1.81,1.07,2.71.51.95,1.1,1.79,1.66,2.39-.02.08-.05.14-.09.16-.08.05-.34,0-.8-.48Zm-1.39-4.48c.42.38.94,1.04,1.43,1.96.52.97.76,1.75.84,2.27-.46-.54-.92-1.23-1.33-2.01-.45-.84-.75-1.6-.94-2.23Z"/>
          </g>
          <g>
            <ellipse class="cls-2" cx="14.85" cy="12.85" rx="2" ry=".58" transform="translate(-3.49 19.87) rotate(-61.82)"/>
            <path class="cls-2" d="m10.68,15.58c.08.04.18.07.28.07.3,0,.66-.21,1.08-.59.05.09.11.16.2.21.07.04.15.06.23.06.27,0,.62-.2,1.01-.6.45-.46.92-1.13,1.33-1.9.41-.76.71-1.53.84-2.16.15-.71.07-1.17-.23-1.33-.08-.04-.18-.05-.28-.04.11-.7.04-1.23-.32-1.42-.81-.43-2.3,1.33-3.3,3.19-1,1.87-1.63,4.09-.83,4.52Zm1.73-.64s-.07-.08-.09-.16c.56-.6,1.15-1.44,1.66-2.39.48-.9.88-1.88,1.07-2.71.01,0,.03-.01.04-.02.03,0,.06-.01.09-.01.02,0,.04,0,.06.01.08.04.18.29.04.93-.13.6-.41,1.33-.81,2.06-.39.73-.84,1.38-1.27,1.81-.46.47-.72.52-.8.48Zm1.25-2.73c-.41.77-.88,1.46-1.33,2.01.08-.52.32-1.3.84-2.27.49-.92,1.01-1.59,1.43-1.96-.18.63-.49,1.38-.94,2.23Z"/>
          </g>
        </g>
        <g>
          <ellipse class="cls-2" cx="9.79" cy="4.02" rx="2" ry=".58"/>
          <path class="cls-2" d="m14.16,6.4c0-.09-.02-.19-.07-.27-.14-.26-.5-.49-1.03-.67.06-.08.09-.17.09-.27,0-.08-.02-.15-.06-.23-.13-.24-.47-.45-1-.6-.62-.18-1.43-.28-2.3-.28s-1.68.1-2.3.28c-.69.2-1.06.49-1.06.83,0,.09.04.18.09.27-.67.23-1.1.55-1.1.95,0,.92,2.26,1.4,4.37,1.4,2.12,0,4.37-.49,4.37-1.4Zm-1.38-1.22s-.04.1-.1.15c-.79-.21-1.81-.34-2.89-.34-1.02,0-2.08.12-2.89.34,0,0-.02-.02-.03-.02-.02-.02-.04-.04-.06-.07,0-.02-.02-.04-.02-.06,0-.09.17-.3.8-.48.58-.17,1.36-.26,2.2-.26.83,0,1.61.09,2.2.26.63.18.8.39.8.48Zm-3,.18c.88,0,1.7.08,2.4.23-.5.18-1.29.33-2.4.33-1.04,0-1.88-.15-2.4-.34.64-.13,1.45-.22,2.4-.22Z"/>
        </g>
      </g>
    </g>
  </g>
</svg>