<svg xmlns:xlink="http://www.w3.org/1999/xlink" xmlns="http://www.w3.org/2000/svg" id="_图层_1" data-name="图层 1" viewBox="0 0 21.26 21.26" width="21.26"  height="21.26" >
  <g id="icon-1">
    <path d="m21.26,10.63c0,5.87-4.76,10.63-10.63,10.63S0,16.5,0,10.63,4.76,0,10.63,0c5.87,0,10.63,4.76,10.63,10.63Z" style="fill: #000; stroke-width: 0px;"/>
    <path d="m17.1,8.95L8.04,3.72c-1.29-.75-2.91.19-2.91,1.68v10.46c0,1.49,1.62,2.43,2.91,1.68l9.06-5.23c1.29-.74,1.29-2.61,0-3.36Z" style="fill: #fff; stroke-width: 0px;"/>
    <g>
      <g>
        <path d="m6.34,10.67l.11-2.23h2.33l-.01.79h-1.52l-.05.67c.21-.2.46-.29.75-.29.53,0,.84.27.95.8.03.14.04.3.04.47-.01.54-.1.93-.29,1.17-.21.26-.55.39-1.04.39-.74,0-1.17-.27-1.28-.82-.02-.1-.03-.21-.03-.33v-.13h.99v.14c0,.09.01.18.02.24.03.16.12.24.27.24.11,0,.18-.05.23-.14.05-.12.08-.36.08-.72,0-.13-.01-.24-.03-.32-.04-.19-.13-.28-.27-.28-.19,0-.29.11-.29.34h-.96v.01Z" style="fill: #000; stroke-width: 0px;"/>
        <path d="m9.26,10.41c0-.78.12-1.33.34-1.63.2-.28.55-.41,1.04-.41.37,0,.65.07.84.22.21.16.35.43.43.8.06.27.08.61.08,1.03,0,.78-.12,1.33-.34,1.63-.2.28-.55.41-1.04.41-.37,0-.65-.07-.84-.21-.21-.16-.36-.43-.44-.8-.05-.28-.08-.63-.07-1.04Zm1.06-.67l-.01,1.33c0,.2.01.35.03.45.04.18.13.27.28.27.11,0,.19-.05.24-.15.05-.1.07-.29.08-.57l.01-1.33c0-.2-.01-.35-.03-.45-.04-.18-.13-.27-.28-.27-.11,0-.19.05-.24.15-.06.1-.08.3-.08.57Z" style="fill: #000; stroke-width: 0px;"/>
      </g>
      <g>
        <path d="m12.6,11.65l.02-2.17h.55l-.01.71h.01c.08-.15.21-.23.38-.23.23,0,.37.1.41.3.01.04.01.09.01.14l-.01,1.24h-.55l.01-1.09c0-.04,0-.07-.01-.09-.01-.07-.06-.1-.13-.1-.09,0-.13.07-.13.2l-.01,1.09h-.54Z" style="fill: #000; stroke-width: 0px;"/>
        <path d="m14.23,11.65l.01-1.65h.53v.26h.01c.06-.2.19-.3.37-.3h.09v.51c-.04-.01-.09-.01-.14-.01-.21,0-.31.1-.31.29l-.01.9h-.55Z" style="fill: #000; stroke-width: 0px;"/>
        <path d="m15.38,11.14h.48c0,.07.01.13.04.17s.06.05.11.05.09-.02.12-.05.04-.07.03-.12c-.01-.06-.08-.11-.2-.15-.19-.07-.31-.11-.34-.13-.13-.07-.21-.17-.23-.3-.01-.04-.01-.08-.01-.12,0-.15.06-.27.16-.37.12-.1.28-.15.5-.15.35,0,.55.12.6.38.01.04.01.09.01.14h-.47c0-.03,0-.05-.01-.07-.02-.07-.06-.11-.14-.11-.09,0-.14.04-.14.13,0,.07.06.12.18.16.21.07.33.11.35.12.14.07.22.17.25.31.01.04.01.08.01.13,0,.16-.06.29-.18.4-.12.1-.28.15-.48.15-.37,0-.58-.13-.63-.39,0-.069-.01-.119-.01-.179Z" style="fill: #000; stroke-width: 0px;"/>
      </g>
    </g>
  </g>
</svg>