<svg xmlns:xlink="http://www.w3.org/1999/xlink" xmlns="http://www.w3.org/2000/svg" id="_图层_2" data-name="图层 2" viewBox="0 0 28.77 28.77" width="28.77"  height="28.77" >
  <defs>
    <style>
      .cls-1 {
        fill: #000;
      }

      .cls-2 {
        fill: #fff;
      }
    </style>
  </defs>
  <g id="_图层_1-2" data-name="图层 1">
    <g>
      <path class="cls-1" d="m14.39,0C6.44,0,0,6.43,0,14.38s6.44,14.39,14.39,14.39,14.38-6.44,14.38-14.39S22.33,0,14.39,0"/>
      <g>
        <g>
          <path class="cls-2" d="m21.2,13.07v.48c1.62.48,2.62,1.13,2.62,1.81,0,1.1-2.58,2.03-6.18,2.39v1.08c4.33-.43,7.48-1.69,7.48-3.18,0-1.04-1.52-1.97-3.91-2.58Z"/>
          <path class="cls-2" d="m17.49,18.99v-1.37h.13c3.56-.37,6.05-1.29,6.05-2.26,0-.59-.92-1.2-2.52-1.68l-.1-.03v-.77l.18.05c2.56.65,4.02,1.65,4.02,2.72,0,1.54-3.06,2.88-7.6,3.33l-.16.02Zm.29-1.11v.79c4.24-.44,7.19-1.68,7.19-3.02,0-.89-1.35-1.78-3.63-2.39v.18c1.69.52,2.62,1.2,2.62,1.92,0,1.15-2.42,2.13-6.18,2.52Z"/>
        </g>
        <g>
          <path class="cls-2" d="m14.74,17.9c-.12,0-.23,0-.35,0-5.21,0-9.43-1.14-9.43-2.54,0-.74,1.19-1.45,3.08-1.94v-.46c-2.65.61-4.37,1.59-4.37,2.69,0,1.84,4.8,3.34,10.73,3.34.12,0,.24,0,.35,0v1.45l2.04-2.04-2.04-2.04v1.54Z"/>
          <path class="cls-2" d="m14.6,20.79v-1.65h-.21c-6.1,0-10.87-1.53-10.87-3.48,0-1.14,1.63-2.17,4.48-2.83l.18-.04v.75l-.11.03c-1.86.49-2.97,1.16-2.97,1.8,0,1.16,3.73,2.4,9.29,2.4.07,0,.14,0,.21,0v-1.75l2.38,2.39-2.38,2.39Zm.29-1.94v1.25l1.69-1.69-1.69-1.69v1.34h-.21c-.1,0-.19,0-.28,0-4.71,0-9.58-1.01-9.58-2.69,0-.79,1.09-1.52,3.07-2.05v-.17c-2.56.61-4.08,1.54-4.08,2.51,0,1.73,4.85,3.19,10.58,3.19h.5Z"/>
        </g>
        <g>
          <path class="cls-2" d="m10.91,9.23v5.71h-1.16v-4.36l-1.14,1.01-.69-.79,1.86-1.57h1.13Z"/>
          <path class="cls-2" d="m15.54,10.71c0,.61-.35,1.09-.97,1.27v.02c.69.19,1.07.67,1.07,1.39,0,1.02-.84,1.66-2.01,1.66s-2.01-.62-2.01-1.66c0-.72.38-1.2,1.06-1.39v-.02c-.61-.18-.97-.65-.97-1.27,0-.94.73-1.57,1.91-1.57s1.91.61,1.91,1.57Zm-1.91,3.22c.44,0,.8-.28.8-.72s-.35-.73-.81-.73-.79.3-.79.73.35.72.8.72Zm0-2.41c.42,0,.7-.28.7-.64s-.29-.63-.71-.63-.69.3-.69.63c0,.36.29.64.7.64Z"/>
          <path class="cls-2" d="m20.2,12.09c0,1.86-.73,2.95-2.12,2.95s-2.12-1.11-2.12-2.95.74-2.95,2.12-2.95,2.12,1.11,2.12,2.95Zm-2.12,1.84c.6,0,.91-.56.91-1.84s-.32-1.84-.92-1.84-.9.56-.9,1.84.32,1.84.91,1.84Z"/>
          <path class="cls-2" d="m23.15,10.53c0,.76-.61,1.39-1.39,1.39s-1.39-.61-1.39-1.39.63-1.39,1.39-1.39,1.39.63,1.39,1.39Zm-1.39.71c.39,0,.71-.31.71-.71s-.31-.71-.71-.71-.71.31-.71.71.31.71.71.71Z"/>
        </g>
      </g>
    </g>
  </g>
</svg>