<svg xmlns:xlink="http://www.w3.org/1999/xlink" xmlns="http://www.w3.org/2000/svg" id="_图层_1" data-name="图层 1" viewBox="0 0 12.77 12.75" width="18"  height="18" >
  <g id="icon-3" transform="rotate(90) translate(0 -12.77)">
    <path d="m0,6.37c0,3.52,2.85,6.38,6.38,6.38s6.39-2.86,6.39-6.38S9.91,0,6.38,0C2.86,0,0,2.85,0,6.37Z" style="fill: #000; stroke-width: 0px;"/>
    <g>
      <g>
        <path d="m4.46,3.13v.06h-.64c-.73,0-1.33.59-1.33,1.33v-.09h-.51c-.19,0-.35.16-.35.35v3.34c0,.19.16.35.35.35h.51v-.09c0,.73.59,1.33,1.33,1.33h5.13c.73,0,1.33-.59,1.33-1.33v.09h.51c.19,0,.35-.16.35-.35v-3.34c0-.19-.16-.35-.35-.35h-.51v.09c0-.73-.59-1.33-1.33-1.33h-3.04v-.06c0-.05-.04-.09-.09-.09h-1.27c-.05,0-.09.04-.09.09Z" style="fill: #fff; stroke-width: 0px;"/>
        <path d="m8.82,4.04c.34,0,.62.28.62.62v3.58c0,.34-.28.62-.62.62H3.95c-.34,0-.62-.28-.62-.62v-3.58c0-.34.28-.62.62-.62h4.87m.06-.27H3.89c-.47,0-.84.38-.84.84v3.67c0,.47.38.84.84.84h4.99c.47,0,.84-.38.84-.84v-3.67c0-.46-.38-.84-.84-.84h0Z" style="fill: #000; stroke-width: 0px;"/>
      </g>
      <path d="m7.69,4.56h.93c.02,0,.03.01.04.01l-4.72,3.53c0-.02-.01-.04-.01-.06v-.93h-.28v.97c0,.29.24.53.53.53h.97v-.28h-.93c-.02,0-.03-.01-.04-.01l4.72-3.53c0,.02.01.04.01.06v.93h.28v-.97c0-.29-.24-.53-.53-.53h-.97v.28h0Z" style="fill: #000; stroke-width: 0px;"/>
    </g>
  </g>
</svg>