<svg xmlns:xlink="http://www.w3.org/1999/xlink" xmlns="http://www.w3.org/2000/svg" id="_图层_2" data-name="图层 2" viewBox="0 0 28.77 28.78" width="28.77"  height="28.78" >
  <defs>
    <style>
      .cls-1 {
        fill: #000;
      }

      .cls-2 {
        fill: #fff;
      }
    </style>
  </defs>
  <g id="_图层_1-2" data-name="图层 1">
    <g>
      <path class="cls-1" d="m14.39,0C6.44,0,0,6.44,0,14.38s6.44,14.4,14.39,14.4,14.38-6.44,14.38-14.4S22.33,0,14.39,0"/>
      <path class="cls-2" d="m16.24,10.19l-1.96,2.99c.19-.05.38-.08.58-.08,1.55,0,2.62,1.18,2.62,2.73,0,1.77-1.43,2.87-3.12,2.87s-3.12-1.05-3.12-2.87c0-1.16.41-1.85,1.02-2.79l1.82-2.85h2.16Zm-1.88,6.87c.76,0,1.35-.51,1.35-1.31s-.6-1.31-1.36-1.31-1.33.56-1.33,1.31c0,.84.66,1.31,1.35,1.31Z"/>
      <g>
        <path class="cls-2" d="m16.08,21.72c-.48.08-.97.11-1.46.1-1.74-.07-3.4-.8-4.61-1.97l-1.36,1.36c1.67,1.42,3.84,2.18,5.97,2.09.61-.02,1.22-.11,1.81-.25l-.35-1.32Z"/>
        <path class="cls-2" d="m11.82,5.83c-.25.07-.5.15-.74.25-1.12.45-2.16,1.13-3.03,1.98-.85.87-1.53,1.9-1.98,3.03-.09.24-.17.49-.25.74l2.51.67c.35-.95.9-1.82,1.62-2.53.71-.72,1.58-1.27,2.53-1.62l-.67-2.51Z"/>
        <path class="cls-2" d="m9.42,19.21c-1.05-1.3-1.6-2.96-1.52-4.59.02-.44.08-.88.18-1.31l-2.45-.66c-.12.65-.18,1.31-.16,1.96.07,2.25,1.02,4.42,2.55,6l1.41-1.41Z"/>
        <path class="cls-2" d="m21.36,17.42c-.35.89-.89,1.7-1.56,2.39-.69.67-1.5,1.2-2.39,1.56-.16.06-.33.11-.5.16l.34,1.28c1.28-.45,2.46-1.17,3.41-2.13.96-.95,1.69-2.12,2.13-3.41l-1.28-.34c-.05.17-.1.33-.16.5Z"/>
        <path class="cls-2" d="m19.85,10.01c1.17,1.21,1.9,2.87,1.97,4.62.02.48-.02.97-.1,1.46l1.32.35c.14-.59.23-1.2.25-1.81.08-2.13-.68-4.31-2.09-5.97l-1.36,1.36Z"/>
        <path class="cls-2" d="m13.32,8.09c.43-.1.86-.16,1.31-.18,1.63-.08,3.28.47,4.59,1.52l1.41-1.41c-1.57-1.53-3.74-2.48-6-2.55-.66-.02-1.31.04-1.96.16l.66,2.45Z"/>
      </g>
    </g>
  </g>
</svg>