<svg xmlns:xlink="http://www.w3.org/1999/xlink" xmlns="http://www.w3.org/2000/svg" id="_图层_1" data-name="图层 1" viewBox="0 0 22.68 22.68" width="22.68"  height="22.68" >
  <g id="icon-3">
    <path d="m11.34,22.68h0C5.08,22.68,0,17.6,0,11.34h0C0,5.08,5.08,0,11.34,0h0c6.26,0,11.34,5.08,11.34,11.34h0c0,6.27-5.08,11.34-11.34,11.34Z" style="fill: #000; stroke-width: 0px;"/>
    <path d="m11.34,19.13h0c-4.3,0-7.78-3.48-7.78-7.78h0c0-4.3,3.48-7.78,7.78-7.78h0c4.3,0,7.78,3.48,7.78,7.78h0c0,4.29-3.48,7.78-7.78,7.78Z" style="fill: none; stroke-width: 0px;"/>
    <g>
      <path d="m14.73,16.77c-.98.61-2.12.97-3.36.97-1.27,0-2.45-.38-3.45-1.02l-1.08,1c1.28.91,2.84,1.45,4.52,1.45,1.65,0,3.18-.52,4.45-1.39l-1.08-1.01Z" style="fill: #fff; stroke-width: 0px;"/>
      <path d="m8.98,11.81l.19-4.62h4.83v1.65h-3.16l-.09,1.4c.43-.41.94-.61,1.54-.61,1.39,0,2.08.88,2.08,2.65,0,1.12-.2,1.93-.59,2.44-.42.54-1.14.81-2.14.81-1.82,0-2.73-.8-2.73-2.39v-.27h2.05v.28c0,.67.2,1.01.6,1.01.24,0,.39-.1.47-.29.1-.24.15-.74.15-1.49,0-.84-.21-1.26-.62-1.26-.4,0-.6.24-.6.71h-1.98v-.02Z" style="fill: #fff; stroke-width: 0px;"/>
      <g>
        <path d="m5.15,9.93l-1.39-.38c-.14.58-.22,1.18-.22,1.8,0,2.18.9,4.15,2.34,5.57l1.05-.98c-1.21-1.16-1.96-2.79-1.96-4.6.01-.48.08-.95.18-1.41Z" style="fill: #fff; stroke-width: 0px;"/>
        <path d="m4.14,8.38l1.41.38c.9-2.01,2.8-3.46,5.08-3.73v-1.47c-2.94.28-5.41,2.19-6.49,4.82Z" style="fill: #fff; stroke-width: 0px;"/>
      </g>
      <g>
        <path d="m17.3,8.98l1.44-.22c-1.02-2.89-3.68-5-6.87-5.2v1.45c2.47.19,4.54,1.77,5.43,3.97Z" style="fill: #fff; stroke-width: 0px;"/>
        <path d="m17.65,10.18c.07.38.11.77.11,1.18,0,1.84-.79,3.49-2.04,4.66l1.06.98c1.48-1.42,2.41-3.42,2.41-5.64,0-.48-.05-.94-.13-1.39l-1.41.21Z" style="fill: #fff; stroke-width: 0px;"/>
      </g>
    </g>
  </g>
</svg>