<?xml version="1.0" encoding="utf-8"?>
<!-- Generator: Adobe Illustrator 25.1.0, SVG Export Plug-In . SVG Version: 6.00 Build 0)  -->
<svg version="1.1" id="图层_1" xmlns="http://www.w3.org/2000/svg" xmlns:xlink="http://www.w3.org/1999/xlink" x="0px" y="0px"
	 viewBox="0 0 50 50" style="enable-background:new 0 0 50 50;" xml:space="preserve">
<style type="text/css">
	.st0{fill:#000;}
	.st1{fill:#fff;}
	.st2{fill:none;stroke:#fff;stroke-width:0.3;stroke-miterlimit:10;}
</style>
<g id="图层_2_1_">
	<g id="图层_1-2">
		<g id="with-remote-control">
			<path class="st0" d="M25,50L25,50C11.2,50,0,38.8,0,25S11.2,0,25,0s25,11.2,25,25S38.8,50,25,50"/>
			<path class="st1" d="M16.7,39.6V26.9c0-1.5,0.7-3,1.8-4c1.2-1.1,2.7-1.7,4.2-1.6h4.4c1.6,0,3.1,0.6,4.2,1.6c1.1,1,1.8,2.5,1.8,4
				v12.7h-1.6V26.9c0-1.1-0.5-2.1-1.3-2.8c-0.9-0.8-2-1.2-3.1-1.2h-4.4c-1.2,0-2.3,0.4-3.1,1.2c-0.8,0.7-1.3,1.8-1.3,2.8v12.7H16.7z
				"/>
			<path class="st2" d="M16.7,39.6V26.9c0-1.5,0.7-3,1.8-4c1.2-1.1,2.7-1.7,4.2-1.6h4.4c1.6,0,3.1,0.6,4.2,1.6c1.1,1,1.8,2.5,1.8,4
				v12.7h-1.6V26.9c0-1.1-0.5-2.1-1.3-2.8c-0.9-0.8-2-1.2-3.1-1.2h-4.4c-1.2,0-2.3,0.4-3.1,1.2c-0.8,0.7-1.3,1.8-1.3,2.8v12.7H16.7z
				"/>
			<path class="st1" d="M28.5,39.6L28.5,39.6c0-2-1.6-3.6-3.5-3.6s-3.5,1.6-3.5,3.5v0.1h-2.3v-0.1c0-3.2,2.6-5.8,5.8-5.8
				c3.2,0,5.8,2.6,5.8,5.8v0.1H28.5z M20,29c-0.5,0-0.8-0.4-0.8-0.8c0-0.5,0.4-0.8,0.8-0.8h9.9c0.5,0,0.8,0.4,0.8,0.8
				c0,0.5-0.4,0.8-0.8,0.8H20z"/>
			<path class="st2" d="M28.5,39.6L28.5,39.6c0-2-1.6-3.6-3.5-3.6s-3.5,1.6-3.5,3.5v0.1h-2.3v-0.1c0-3.2,2.6-5.8,5.8-5.8
				c3.2,0,5.8,2.6,5.8,5.8v0.1H28.5z M20,29c-0.5,0-0.8-0.4-0.8-0.8c0-0.5,0.4-0.8,0.8-0.8h9.9c0.5,0,0.8,0.4,0.8,0.8
				c0,0.5-0.4,0.8-0.8,0.8H20z"/>
			<path class="st1" d="M25.1,15c1.7,0,3.4,0.6,4.7,1.7l-1.2,1.2c-2.2-1.7-5.3-1.6-7.4,0.2L20.1,17C21.5,15.7,23.2,15,25.1,15
				 M25.1,10.4c3,0,5.8,1.1,8,3.1L32,14.6c-4-3.6-10.1-3.4-14,0.3l-1.2-1.2C19.1,11.6,22,10.4,25.1,10.4"/>
			<path class="st2" d="M25.1,15c1.7,0,3.4,0.6,4.7,1.7l-1.2,1.2c-2.2-1.7-5.3-1.6-7.4,0.2L20.1,17C21.5,15.7,23.3,15,25.1,15z
				 M25.1,10.4c3,0,5.8,1.1,8,3.1L32,14.6c-4-3.6-10.1-3.4-14,0.3l-1.2-1.2C19.1,11.6,22,10.4,25.1,10.4L25.1,10.4z"/>
		</g>
	</g>
</g>
</svg>
